<mxfile host="Electron" agent="Mozilla/5.0 (Windows NT 10.0; Win64; x64) AppleWebKit/537.36 (KHTML, like Gecko) draw.io/24.7.17 Chrome/128.0.6613.36 Electron/32.0.1 Safari/537.36" version="24.7.17">
  <diagram name="Page-1" id="g-V9r-hvvWMcZbkZFMhY">
    <mxGraphModel dx="1036" dy="606" grid="1" gridSize="10" guides="1" tooltips="1" connect="1" arrows="1" fold="1" page="1" pageScale="1" pageWidth="850" pageHeight="1100" math="0" shadow="0">
      <root>
        <mxCell id="0" />
        <mxCell id="1" parent="0" />
        <mxCell id="RCeoaS0Cy3WcGRwcYW0P-1" value="" style="whiteSpace=wrap;html=1;sketch=1;curveFitting=1;jiggle=2;fillColor=none;" vertex="1" parent="1">
          <mxGeometry x="50" y="130" width="190" height="300" as="geometry" />
        </mxCell>
        <mxCell id="RCeoaS0Cy3WcGRwcYW0P-2" value="&lt;span style=&quot;font-size: 17px;&quot;&gt;&lt;b&gt;Sedentary Timer&lt;/b&gt;&lt;/span&gt;" style="text;html=1;align=center;verticalAlign=middle;whiteSpace=wrap;rounded=0;" vertex="1" parent="1">
          <mxGeometry x="77.5" y="205" width="125" height="50" as="geometry" />
        </mxCell>
        <mxCell id="RCeoaS0Cy3WcGRwcYW0P-3" value="" style="verticalLabelPosition=bottom;aspect=fixed;html=1;shape=mxgraph.salesforce.social_studio2;" vertex="1" parent="1">
          <mxGeometry x="110" y="140" width="60" height="60" as="geometry" />
        </mxCell>
        <mxCell id="RCeoaS0Cy3WcGRwcYW0P-4" value="&lt;font style=&quot;font-size: 36px;&quot;&gt;44 : 59&lt;/font&gt;" style="text;html=1;align=center;verticalAlign=middle;whiteSpace=wrap;rounded=0;" vertex="1" parent="1">
          <mxGeometry x="70" y="250" width="150" height="70" as="geometry" />
        </mxCell>
        <mxCell id="RCeoaS0Cy3WcGRwcYW0P-5" value="&lt;font style=&quot;font-size: 20px;&quot;&gt;Start&lt;/font&gt;" style="ellipse;whiteSpace=wrap;html=1;aspect=fixed;" vertex="1" parent="1">
          <mxGeometry x="100" y="340" width="80" height="80" as="geometry" />
        </mxCell>
        <mxCell id="RCeoaS0Cy3WcGRwcYW0P-6" value="" style="endArrow=classic;html=1;rounded=0;" edge="1" parent="1">
          <mxGeometry width="50" height="50" relative="1" as="geometry">
            <mxPoint x="250" y="284.5" as="sourcePoint" />
            <mxPoint x="350" y="284.5" as="targetPoint" />
          </mxGeometry>
        </mxCell>
        <mxCell id="RCeoaS0Cy3WcGRwcYW0P-7" value="" style="whiteSpace=wrap;html=1;sketch=1;curveFitting=1;jiggle=2;fillColor=none;" vertex="1" parent="1">
          <mxGeometry x="360" y="135" width="190" height="300" as="geometry" />
        </mxCell>
        <mxCell id="RCeoaS0Cy3WcGRwcYW0P-8" value="&lt;span style=&quot;font-size: 17px;&quot;&gt;&lt;b&gt;Sedentaty Timer&lt;/b&gt;&lt;/span&gt;" style="text;html=1;align=center;verticalAlign=middle;whiteSpace=wrap;rounded=0;" vertex="1" parent="1">
          <mxGeometry x="387.5" y="220" width="125" height="50" as="geometry" />
        </mxCell>
        <mxCell id="RCeoaS0Cy3WcGRwcYW0P-9" value="" style="verticalLabelPosition=bottom;aspect=fixed;html=1;shape=mxgraph.salesforce.social_studio2;" vertex="1" parent="1">
          <mxGeometry x="420" y="145" width="60" height="60" as="geometry" />
        </mxCell>
        <mxCell id="RCeoaS0Cy3WcGRwcYW0P-10" value="&lt;span style=&quot;font-size: 36px;&quot;&gt;Standup!&lt;/span&gt;" style="text;html=1;align=center;verticalAlign=middle;whiteSpace=wrap;rounded=0;" vertex="1" parent="1">
          <mxGeometry x="380" y="255" width="150" height="70" as="geometry" />
        </mxCell>
        <mxCell id="RCeoaS0Cy3WcGRwcYW0P-11" value="&lt;font style=&quot;font-size: 10px;&quot;&gt;Continue&lt;/font&gt;&lt;div style=&quot;font-size: 10px;&quot;&gt;&lt;font style=&quot;font-size: 10px;&quot;&gt;in 15s&lt;/font&gt;&lt;/div&gt;" style="ellipse;whiteSpace=wrap;html=1;aspect=fixed;" vertex="1" parent="1">
          <mxGeometry x="425" y="350" width="50" height="50" as="geometry" />
        </mxCell>
        <mxCell id="RCeoaS0Cy3WcGRwcYW0P-12" value="&lt;span style=&quot;font-size: 10px;&quot;&gt;Snooze&lt;/span&gt;&lt;div&gt;&lt;span style=&quot;font-size: 10px;&quot;&gt;5 mins&lt;/span&gt;&lt;/div&gt;" style="ellipse;whiteSpace=wrap;html=1;aspect=fixed;" vertex="1" parent="1">
          <mxGeometry x="360" y="350" width="50" height="50" as="geometry" />
        </mxCell>
        <mxCell id="RCeoaS0Cy3WcGRwcYW0P-13" value="&lt;span style=&quot;font-size: 10px;&quot;&gt;Snooze&lt;/span&gt;&lt;div&gt;&lt;span style=&quot;font-size: 10px;&quot;&gt;15 mins&lt;/span&gt;&lt;/div&gt;" style="ellipse;whiteSpace=wrap;html=1;aspect=fixed;" vertex="1" parent="1">
          <mxGeometry x="490" y="350" width="50" height="50" as="geometry" />
        </mxCell>
      </root>
    </mxGraphModel>
  </diagram>
</mxfile>
